<?xml version="1.0" encoding="utf-8"?>
<!-- Generator: Adobe Illustrator 22.1.0, SVG Export Plug-In . SVG Version: 6.00 Build 0)  -->
<svg version="1.1" id="Layer_1" xmlns="http://www.w3.org/2000/svg" xmlns:xlink="http://www.w3.org/1999/xlink" x="0px" y="0px"
	 viewBox="0 0 349 51.8" style="enable-background:new 0 0 349 51.8;" xml:space="preserve">
<style type="text/css">
	.st0{fill:#FAAF3B;}
	.st1{fill:#B2B2B2;}
</style>
<title>Untitled-11</title>
<g>
	<path class="st0" d="M40.4,38.9c0.3-0.3,0.2-0.5-0.2-0.6L37.9,38c-0.4-0.1-0.8-0.3-1-0.7l-1-2.1c-0.2-0.3-0.4-0.3-0.6,0l-1,2.1
		c-0.2,0.4-0.6,0.6-1,0.7L31,38.3c-0.4,0.1-0.5,0.3-0.2,0.6l1.7,1.7c0.3,0.3,0.4,0.7,0.4,1.1L32.5,44c-0.1,0.4,0.2,0.5,0.5,0.3
		l2.1-1.1c0.4-0.2,0.8-0.2,1.2,0l2.1,1.1c0.3,0.2,0.5,0,0.5-0.3l-0.4-2.3c-0.1-0.4,0.1-0.8,0.4-1.1L40.4,38.9z"/>
	<path class="st0" d="M52.1,38.9c0.3-0.3,0.2-0.5-0.2-0.6L49.6,38c-0.4-0.1-0.8-0.3-1-0.7l-1-2.1c-0.2-0.3-0.4-0.3-0.6,0l-1,2.1
		c-0.2,0.4-0.6,0.6-1,0.7l-2.3,0.3c-0.4,0.1-0.5,0.3-0.2,0.6l1.7,1.7c0.3,0.3,0.4,0.7,0.4,1.1L44.1,44c-0.1,0.4,0.2,0.5,0.5,0.3
		l2.1-1.1c0.4-0.2,0.8-0.2,1.2,0l2.1,1.1c0.3,0.2,0.5,0,0.5-0.3l-0.4-2.3c0-0.4,0.1-0.8,0.4-1.1L52.1,38.9z"/>
	<path class="st0" d="M63.8,38.9c0.3-0.3,0.2-0.5-0.2-0.6L61.3,38c-0.4-0.1-0.8-0.3-1-0.7l-1-2.1c-0.2-0.3-0.4-0.3-0.6,0l-1,2.1
		c-0.2,0.4-0.6,0.6-1,0.7l-2.3,0.3c-0.4,0.1-0.4,0.3-0.2,0.6l1.7,1.7c0.3,0.3,0.4,0.7,0.4,1.1L55.9,44c-0.1,0.4,0.2,0.5,0.5,0.3
		l2.1-1.1c0.4-0.2,0.8-0.2,1.2,0l2.1,1.1c0.3,0.2,0.5,0,0.5-0.3l-0.4-2.3c0-0.4,0.2-0.8,0.5-1.1L63.8,38.9z"/>
	<path class="st0" d="M75.4,38.9c0.3-0.3,0.2-0.5-0.2-0.6L72.9,38c-0.4-0.1-0.8-0.3-1-0.7l-1-2.1c-0.2-0.3-0.4-0.3-0.6,0l-1,2.1
		c-0.2,0.4-0.6,0.6-1,0.7L66,38.3c-0.4,0.1-0.4,0.3-0.2,0.6l1.7,1.7c0.3,0.3,0.4,0.7,0.4,1.1L67.5,44c-0.1,0.4,0.2,0.5,0.5,0.3
		l2.1-1.1c0.4-0.2,0.8-0.2,1.2,0l2.1,1.1c0.3,0.2,0.5,0,0.5-0.3l-0.4-2.3c-0.1-0.4,0.1-0.8,0.4-1.1L75.4,38.9z"/>
	<path class="st1" d="M87.1,38.9c0.3-0.3,0.2-0.5-0.2-0.6L84.6,38c-0.4-0.1-0.8-0.3-1-0.7l-1-2.1c-0.2-0.3-0.4-0.3-0.6,0l-1,2.1
		c-0.2,0.4-0.6,0.6-1,0.7l-2.3,0.3c-0.4,0-0.4,0.3-0.2,0.6l1.7,1.7c0.3,0.3,0.4,0.7,0.4,1.1L79.1,44c-0.1,0.4,0.2,0.5,0.5,0.3
		l2.1-1.1c0.4-0.2,0.8-0.2,1.2,0l2.1,1.1c0.3,0.2,0.5,0,0.5-0.3l-0.4-2.3c0-0.4,0.1-0.8,0.4-1.1L87.1,38.9z"/>
	<path class="st0" d="M82.2,35c-0.1,0-0.2,0.1-0.2,0.2l-1,2.1c-0.2,0.4-0.6,0.6-1,0.7l-2.3,0.3c-0.4,0.1-0.4,0.3-0.2,0.6l1.7,1.7
		c0.3,0.3,0.4,0.7,0.4,1.1L79.1,44c-0.1,0.4,0.2,0.5,0.5,0.3l2.1-1.1c0.2-0.1,0.3-0.1,0.5-0.1V35z"/>
	<path class="st1" d="M149.8,10.9c0.3-0.3,0.5-0.8,0.6-1.2c0-0.7-0.6-1.2-1.3-1.2H149c-0.7,0-1.3,0.5-1.4,1.2l-1-0.2
		c0.2-1.2,1.2-2,2.4-2c1.2-0.1,2.3,0.9,2.4,2.1v0.1c0,0.7-0.3,1.5-0.8,2l-2.1,2.4h2.9v1h-4.7v-0.5L149.8,10.9z"/>
	<path class="st1" d="M146.7,20.2v-3.8h8.3c0.1,0.5,0.1,1.1,0.1,1.6c0,5.8-4.6,10.5-10.4,10.5c-5.8,0-10.5-4.6-10.5-10.4
		s4.6-10.5,10.4-10.5h0.1v3.7c-3.7,0-6.8,3-6.8,6.8s3,6.8,6.8,6.8c2.9,0,5.4-1.8,6.4-4.6"/>
	<path class="st1" d="M162.9,17.6c0-2.8,0.2-3.9,0.6-4.6c0.8-0.9,1.9-1.4,3.1-1.3c1.1-0.1,2.1,0.3,2.9,1c0.5,0.6,0.7,1.4,0.6,2.2
		v0.7h-2.3c0-1.2-0.1-1.4-0.2-1.6c-0.2-0.3-0.6-0.5-1-0.5s-0.8,0.2-1,0.5c-0.2,0.5-0.3,1.3-0.3,3.6c-0.1,1.2,0,2.3,0.2,3.4
		c0.2,0.4,0.6,0.6,1,0.6c0.9,0,1.2-0.5,1.2-2.2h2.3c0.1,0.9-0.1,1.8-0.4,2.6c-0.4,0.8-1.6,1.3-3.2,1.3c-1.9,0-3.1-0.7-3.4-2
		C162.9,20.1,162.8,18.9,162.9,17.6z"/>
	<path class="st1" d="M171.5,11.9h3.6c1.7,0,2.1,0.1,2.7,0.6c0.6,0.6,0.9,1.4,0.8,2.3c0,0.7-0.1,1.5-0.5,2.1
		c-0.4,0.4-0.9,0.7-1.5,0.8c1.5,0.2,2,0.9,2.1,2.8c0,0.3,0,0.9,0.1,1.7c0,0.4,0.1,0.8,0.2,1.1h-2.5c-0.1-0.7-0.1-1.4-0.1-2.1
		c0-1.4-0.1-2-0.4-2.3c-0.3-0.3-0.4-0.3-1-0.3h-1.1v4.7h-2.3L171.5,11.9L171.5,11.9z M174.8,16.8c1.1,0,1.4-0.5,1.4-1.6
		c0-0.5-0.1-1-0.4-1.4c-0.2-0.2-0.4-0.2-0.9-0.2h-1v3.2H174.8z"/>
	<path class="st1" d="M180.1,17.5c0-2.6,0.1-3.5,0.6-4.3c0.5-1,1.7-1.5,3.3-1.5c1.8,0,3,0.7,3.4,1.9c0.3,1.3,0.4,2.7,0.3,4
		c0,2.4-0.1,3.5-0.4,4.1c-0.7,1.2-2,1.8-3.3,1.6c-1.6,0-2.7-0.5-3.3-1.5C180.2,21.1,180.1,20.2,180.1,17.5z M183.9,21.6
		c0.6,0.1,1.2-0.4,1.3-1c0.1-1.2,0.2-2.3,0.1-3.5c0.1-1,0-2.1-0.2-3.1c-0.2-0.4-0.7-0.7-1.1-0.6c-0.5-0.1-1.1,0.3-1.2,0.8
		c-0.2,1.1-0.2,2.3-0.2,3.4c0,1,0,2,0.1,3C182.7,21.3,183.3,21.7,183.9,21.6L183.9,21.6z"/>
	<path class="st1" d="M188.4,11.9h2.4l0.8,4.1c0.3,1.8,0.4,3.6,0.5,5.5c0.5-3.5,0.6-4.4,0.8-5.5l0.9-4.1h2.6l0.9,4.1
		c0.3,1.8,0.5,3.6,0.6,5.5c0.1-1.8,0.4-3.7,0.7-5.5l0.7-4.1h2.1L199,23.2h-2.6l-1.1-5.2c-0.2-1.4-0.4-2.8-0.5-4.2
		c-0.3,2.5-0.4,2.9-0.6,4.2l-1.1,5.2h-2.6L188.4,11.9z"/>
	<path class="st1" d="M202.3,11.9h3.2c1.8,0,2.4,0.1,3,0.5c0.7,0.5,1.1,1.4,1.2,3.2c0.1,0.7,0.1,1.6,0.1,2.4c0.1,1.3,0,2.5-0.5,3.7
		c-0.6,1-1.8,1.6-3,1.5h-4V11.9z M205.7,21.4c0.8,0,1.3-0.2,1.4-0.6c0.2-1,0.3-2,0.2-3c0.1-1.2,0-2.3-0.3-3.5
		c-0.2-0.5-0.8-0.8-1.3-0.7h-1.1v7.8H205.7z"/>
	<rect x="158.7" y="7.4" class="st1" width="0.8" height="20.9"/>
	<path class="st0" d="M158.7,38.8c0.3-0.3,0.2-0.5-0.2-0.6l-2.4-0.3c-0.4-0.1-0.8-0.3-1-0.7l-1-2.1c-0.2-0.3-0.4-0.3-0.6,0l-1.1,2.1
		c-0.2,0.4-0.5,0.6-0.9,0.7l-2.4,0.3c-0.4,0-0.4,0.3-0.2,0.6l1.7,1.7c0.3,0.3,0.4,0.7,0.4,1.1l-0.4,2.3c-0.1,0.4,0.1,0.5,0.5,0.3
		l2.1-1.1c0.4-0.2,0.8-0.2,1.2,0l2.1,1.1c0.3,0.2,0.5,0,0.5-0.3l-0.4-2.3c0-0.4,0.1-0.8,0.4-1.1L158.7,38.8z"/>
	<path class="st0" d="M170.4,38.8c0.3-0.3,0.2-0.5-0.2-0.6l-2.3-0.3c-0.4-0.1-0.8-0.3-1-0.7l-1-2.1c-0.2-0.3-0.4-0.3-0.6,0l-1.1,2.1
		c-0.2,0.4-0.6,0.6-1,0.7l-2.4,0.3c-0.4,0-0.4,0.3-0.2,0.6l1.7,1.7c0.3,0.3,0.4,0.7,0.4,1.1l-0.4,2.3c-0.1,0.4,0.2,0.5,0.5,0.3
		l2.1-1.1c0.4-0.2,0.8-0.2,1.2,0l2.1,1.1c0.3,0.2,0.5,0,0.5-0.3l-0.4-2.3c0-0.4,0.1-0.8,0.4-1.1L170.4,38.8z"/>
	<path class="st0" d="M182.1,38.8c0.3-0.3,0.2-0.5-0.2-0.6l-2.4-0.3c-0.4-0.1-0.8-0.3-1-0.7l-1.1-2.1c-0.2-0.3-0.4-0.3-0.6,0
		l-1.1,2.1c-0.2,0.4-0.5,0.6-0.9,0.7l-2.4,0.3c-0.4,0-0.4,0.3-0.2,0.6l1.7,1.7c0.3,0.3,0.4,0.7,0.4,1.1l-0.4,2.3
		c-0.1,0.4,0.1,0.5,0.5,0.3l2.1-1.1c0.4-0.2,0.8-0.2,1.2,0l2.1,1.1c0.3,0.2,0.5,0,0.5-0.3l-0.3-2.4c-0.1-0.4,0.1-0.8,0.4-1.1
		L182.1,38.8z"/>
	<path class="st0" d="M193.8,38.8c0.3-0.3,0.2-0.5-0.2-0.6l-2.4-0.3c-0.4-0.1-0.7-0.3-0.9-0.7l-1.1-2.1c-0.2-0.3-0.4-0.3-0.6,0
		l-1,2.1c-0.2,0.4-0.6,0.6-1,0.7l-2.4,0.3c-0.4,0-0.4,0.3-0.2,0.6l1.7,1.7c0.3,0.3,0.4,0.7,0.4,1.1l-0.4,2.3
		c-0.1,0.4,0.2,0.5,0.5,0.3l2.1-1.1c0.4-0.2,0.8-0.2,1.2,0l2.1,1.1c0.3,0.2,0.5,0,0.5-0.3l-0.4-2.4c0-0.4,0.1-0.8,0.4-1.1
		L193.8,38.8z"/>
	<path class="st1" d="M205.5,38.8c0.3-0.3,0.2-0.5-0.2-0.6l-2.3-0.3c-0.4-0.1-0.8-0.3-1-0.7l-1-2.1c-0.2-0.3-0.4-0.3-0.6,0l-1.1,2.1
		c-0.2,0.4-0.6,0.6-1,0.7l-2.4,0.3c-0.4,0.1-0.4,0.3-0.2,0.6l1.7,1.7c0.3,0.3,0.4,0.7,0.4,1.1l-0.4,2.3c-0.1,0.4,0.2,0.5,0.5,0.3
		l2.1-1.1c0.4-0.2,0.8-0.2,1.2,0l2.1,1.1c0.3,0.2,0.5,0,0.5-0.3l-0.4-2.3c0-0.4,0.1-0.8,0.4-1.1L205.5,38.8z"/>
	<path class="st0" d="M200.4,35C200.4,35,200.3,35,200.4,35l-1.1,2.2c-0.2,0.4-0.6,0.6-1,0.7l-2.3,0.3c-0.4,0-0.4,0.3-0.2,0.6
		l1.7,1.7c0.3,0.3,0.4,0.7,0.4,1.1l-0.4,2.3c-0.1,0.4,0.1,0.5,0.5,0.3l2.1-1.1c0.1,0,0.2-0.1,0.4-0.1L200.4,35z"/>
	<path class="st0" d="M279.2,38.7c0.3-0.3,0.2-0.5-0.2-0.6l-2.4-0.3c-0.4-0.1-0.7-0.3-1-0.7l-1-2.1c-0.2-0.3-0.4-0.3-0.6,0l-1,2.1
		c-0.2,0.4-0.6,0.6-1,0.7l-2.4,0.3c-0.4,0-0.5,0.3-0.2,0.6l1.7,1.7c0.3,0.3,0.4,0.7,0.4,1.1l-0.4,2.3c-0.1,0.4,0.1,0.5,0.5,0.3
		l2.1-1.1c0.4-0.2,0.8-0.2,1.2,0l2.1,1.1c0.3,0.2,0.5,0,0.5-0.3l-0.4-2.4c0-0.4,0.1-0.8,0.4-1.1L279.2,38.7z"/>
	<path class="st0" d="M290.9,38.7c0.3-0.3,0.2-0.5-0.2-0.6l-2.3-0.3c-0.4-0.1-0.8-0.3-1-0.7l-1-2.1c-0.2-0.3-0.4-0.3-0.6,0l-1,2.1
		c-0.2,0.4-0.6,0.6-1,0.7l-2.4,0.3c-0.4,0-0.4,0.3-0.2,0.6l1.7,1.7c0.3,0.3,0.4,0.7,0.4,1.1l-0.4,2.3c-0.1,0.4,0.2,0.5,0.5,0.3
		l2.1-1.1c0.4-0.2,0.8-0.2,1.2,0l2.1,1.1c0.3,0.2,0.5,0,0.5-0.3l-0.4-2.3c0-0.4,0.1-0.8,0.4-1.1L290.9,38.7z"/>
	<path class="st0" d="M302.5,38.7c0.3-0.3,0.2-0.5-0.2-0.6l-2.4-0.3c-0.4-0.1-0.8-0.3-1-0.7l-1-2.1c-0.2-0.3-0.4-0.3-0.6,0l-1,2.1
		c-0.2,0.4-0.5,0.6-1,0.7l-2.4,0.3c-0.4,0-0.5,0.3-0.2,0.6l1.7,1.7c0.3,0.3,0.5,0.7,0.4,1.1l-0.4,2.3c-0.1,0.4,0.1,0.5,0.5,0.3
		L297,43c0.4-0.2,0.8-0.2,1.2,0l2.1,1.1c0.3,0.2,0.5,0,0.5-0.3l-0.4-2.3c-0.1-0.4,0.1-0.8,0.4-1.1L302.5,38.7z"/>
	<path class="st0" d="M314.2,38.7c0.3-0.3,0.2-0.5-0.2-0.6l-2.4-0.3c-0.4-0.1-0.7-0.3-1-0.7l-1-2.1c-0.2-0.3-0.4-0.3-0.6,0l-1,2.1
		c-0.2,0.4-0.6,0.6-1,0.7l-2.4,0.3c-0.4,0-0.4,0.3-0.2,0.6l1.7,1.7c0.3,0.3,0.4,0.7,0.4,1.1l-0.4,2.3c-0.1,0.4,0.2,0.5,0.5,0.3
		l2.1-1.1c0.4-0.2,0.8-0.2,1.2,0l2.1,1.1c0.3,0.2,0.5,0,0.5-0.3l-0.4-2.3c0-0.4,0.1-0.8,0.4-1.1L314.2,38.7z"/>
	<path class="st1" d="M325.9,38.7c0.3-0.3,0.2-0.5-0.2-0.6l-2.4-0.3c-0.4-0.1-0.8-0.3-1-0.7l-1-2.1c-0.2-0.3-0.4-0.3-0.6,0l-1,2.1
		c-0.2,0.4-0.6,0.6-1,0.7l-2.4,0.3c-0.4,0-0.4,0.3-0.2,0.6l1.7,1.7c0.3,0.3,0.4,0.7,0.4,1.1l-0.4,2.3c-0.1,0.4,0.2,0.5,0.5,0.3
		l2.1-1.1c0.4-0.2,0.8-0.2,1.2,0l2.1,1.1c0.3,0.2,0.5,0,0.5-0.3l-0.4-2.3c0-0.4,0.1-0.8,0.4-1.1L325.9,38.7z"/>
	<path class="st0" d="M323.9,41.5c0-0.1,0-0.2,0-0.3v-3.3l-0.5-0.1c-0.4-0.1-0.8-0.3-1-0.7l-1-2.1c-0.2-0.3-0.4-0.3-0.6,0l-1,2.1
		c-0.2,0.4-0.6,0.6-1,0.7l-2.3,0.3c-0.4,0-0.5,0.3-0.2,0.6l1.7,1.7c0.3,0.3,0.4,0.7,0.4,1.1l-0.4,2.3c-0.1,0.4,0.1,0.5,0.5,0.3
		l2.1-1.1c0.4-0.2,0.8-0.2,1.2,0l2.1,1.1h0.1L323.9,41.5z"/>
	<path class="st1" d="M339.4,19l-1.4-0.4c-0.3-0.1-0.5-0.1-0.8-0.2c-0.2-0.1-0.3-0.2-0.5-0.3c-0.1-0.1-0.2-0.2-0.3-0.3
		c-0.1-0.1-0.1-0.3-0.1-0.5c0-0.4,0.1-0.7,0.4-1c0.3-0.2,0.8-0.4,1.2-0.3c1.2,0,1.8,0.4,1.9,1.2c0,0.1,0.1,0.2,0.1,0.3
		c0.1,0.1,0.2,0.1,0.3,0.1h0.5c0.1,0,0.2,0,0.3-0.1c0.1-0.1,0.1-0.2,0.1-0.3c0-0.5-0.2-1.1-0.6-1.5c-0.7-0.6-1.6-0.9-2.6-0.9
		c-0.8,0-1.6,0.2-2.3,0.7c-0.6,0.5-0.9,1.1-0.9,1.9v0.1c0,0.5,0.2,1.1,0.5,1.5c0.4,0.4,1,0.7,1.5,0.8l1.5,0.4
		c0.4,0.1,0.8,0.3,1.1,0.5c0.2,0.3,0.3,0.6,0.3,0.9c0,0.8-0.6,1.2-1.8,1.2c-0.5,0-0.9-0.1-1.4-0.3c-0.3-0.2-0.5-0.5-0.6-0.9
		c0-0.1-0.1-0.2-0.1-0.3c-0.1-0.1-0.2-0.1-0.3-0.1h-0.5c-0.1,0-0.2,0-0.3,0.1c-0.1,0.1-0.1,0.2-0.1,0.3c0,0.6,0.2,1.1,0.7,1.5
		c0.8,0.6,1.7,0.9,2.7,0.8c2.1,0,3.2-0.9,3.2-2.5v-0.1C341.4,20.3,340.6,19.2,339.4,19z"/>
	<path class="st1" d="M311.7,15.1c-0.2,0-0.3,0.1-0.3,0.3l-0.1,0.3c-0.1,0.7-0.4,1.6-0.7,2.9c-0.6,2.2-1,3.4-1.1,3.9
		c-0.1-0.5-0.5-2.7-1.1-4.9l-0.2-1c-0.1-0.2-0.1-0.5-0.2-0.7c-0.1-0.5-0.6-0.8-1.1-0.7c-0.4,0.1-0.6,0.4-0.7,0.7
		c0,0.2-0.1,0.5-0.2,0.7c-0.1,0.2-0.2,0.7-0.2,1.1c-0.6,2.2-0.9,4.4-1.1,4.8c-0.1-0.5-0.5-1.7-1.1-3.9c-0.2-0.9-0.4-1.6-0.5-2.2
		c-0.1-0.3-0.2-0.7-0.2-1c0-0.2-0.2-0.3-0.4-0.3h-0.7c-0.2,0-0.4,0.2-0.4,0.4c0,0,0,0,0,0.1c0.1,0.3,0.2,0.7,0.2,1
		c0.1,0.6,0.4,1.4,0.6,2.4c0.4,1.4,0.8,2.8,1.1,4v0.1c0.2,0.5,0.7,0.9,1.2,0.9c0.6,0,1.1-0.3,1.2-0.8l0,0v-0.1
		c0.4-1.4,0.8-3.7,1.1-4.9c0.3,1.1,0.7,3.5,1.1,4.9v0.1l0,0c0.2,0.5,0.7,0.9,1.3,0.8c0.6,0,1.1-0.3,1.2-0.9V23
		c0.4-1.2,0.8-2.6,1.2-4c0.4-1.4,0.6-2.5,0.8-3.1c0-0.1,0-0.2,0.1-0.3c0-0.2-0.1-0.4-0.3-0.4h-0.1L311.7,15.1z"/>
	<path class="st1" d="M292,21.2h-0.5c-0.1,0-0.2,0-0.3,0.1c-0.1,0.1-0.1,0.2-0.1,0.3c-0.1,0.9-0.8,1.3-1.8,1.3
		c-0.6,0-1.1-0.2-1.5-0.6c-0.4-0.6-0.5-1.3-0.5-2v-1.4c-0.1-0.7,0.1-1.4,0.5-2c0.4-0.4,1-0.7,1.6-0.6c0.5,0,0.9,0.1,1.3,0.4
		c0.3,0.2,0.5,0.6,0.5,1c0,0.1,0.1,0.2,0.1,0.3c0.1,0.1,0.2,0.1,0.3,0.1h0.5c0.1,0,0.2,0,0.3-0.1c0.1-0.1,0.1-0.2,0.1-0.3
		c0-0.6-0.2-1.2-0.6-1.6c-0.7-0.7-1.7-1-2.7-0.9c-1-0.1-1.9,0.3-2.6,1c-0.6,0.8-0.9,1.9-0.9,3v1.6c-0.1,1,0.2,2,0.9,2.7
		c0.7,0.7,1.6,1,2.6,0.9c1.1,0.1,2.2-0.3,2.9-1.2c0.2-0.2,0.3-0.5,0.4-0.7c0.1-0.2,0.1-0.5,0.1-0.7c0-0.1,0-0.2-0.1-0.3
		C292.3,21.2,292.1,21.2,292,21.2z"/>
	<path class="st1" d="M300,21.5h-0.6c-0.1,0-0.2,0-0.3,0.1c-0.1,0.1-0.1,0.2-0.2,0.3c-0.3,0.7-1,1.1-1.8,1c-1.4,0-2.1-0.9-2.1-2.6
		v-0.2h2.5c0.9,0,1.7-0.4,2.2-1.1c0.5-0.6,0.7-1.4,0.5-2.2c-0.2-1.1-1.3-1.8-3.1-1.8c-1-0.1-2,0.3-2.6,1.1c-0.7,0.9-1,2-0.9,3.1v1.2
		c-0.1,1,0.3,2,0.9,2.8c0.7,0.7,1.6,1.1,2.6,1c0.5,0,1.1-0.1,1.6-0.3c0.4-0.2,0.8-0.4,1.1-0.7c0.2-0.2,0.3-0.4,0.4-0.6
		c0.1-0.2,0.2-0.4,0.2-0.6c0-0.1,0-0.2-0.1-0.3C300.3,21.6,300.3,21.5,300,21.5z M298.7,18c-0.2,0.5-0.7,0.7-1.2,0.7h-2.4
		c0-1.8,0.7-2.7,2.1-2.7c0.6,0,1.2,0.2,1.5,0.7C299,17.2,299,17.6,298.7,18L298.7,18z"/>
	<path class="st1" d="M317.1,14.9c-1-0.1-2,0.3-2.7,1c-0.7,0.8-1,1.8-1,2.8v1.7c-0.1,1,0.3,2,1,2.7c0.7,0.7,1.7,1,2.7,1
		c1,0.1,2-0.3,2.7-1c0.7-0.8,1-1.8,1-2.8v-1.7c0.2-1.8-1.1-3.5-3-3.7C317.6,14.9,317.3,14.9,317.1,14.9L317.1,14.9z M315,18.8
		c0-1.8,0.7-2.6,2.2-2.6s2.2,0.9,2.2,2.6v1.4c0,1.8-0.7,2.6-2.2,2.6s-2.2-0.9-2.2-2.6V18.8z"/>
	<path class="st1" d="M269.9,19.1l-1.4-0.4c-0.3-0.1-0.5-0.1-0.8-0.2c-0.2-0.1-0.3-0.2-0.5-0.3c-0.1-0.1-0.2-0.2-0.2-0.3
		c-0.2-0.5,0-1,0.3-1.4c0.4-0.2,0.8-0.4,1.2-0.3c1.2,0,1.8,0.4,1.9,1.2c0,0.1,0,0.2,0.1,0.3c0.1,0.1,0.2,0.1,0.4,0h0.5
		c0.1,0,0.2,0,0.3-0.1c0.1-0.1,0.1-0.2,0.1-0.3c0-0.5-0.2-1.1-0.6-1.5c-0.7-0.6-1.6-0.9-2.5-0.8c-0.8,0-1.6,0.2-2.3,0.7
		c-0.6,0.4-0.9,1.1-0.9,1.9v0c0,0.5,0.1,1.1,0.5,1.5c0.4,0.4,1,0.7,1.5,0.8l1.5,0.4c0.4,0.1,0.8,0.3,1.1,0.5
		c0.2,0.3,0.3,0.6,0.3,0.9c0,0.8-0.6,1.2-1.8,1.2c-0.5,0-0.9-0.1-1.4-0.3c-0.3-0.2-0.5-0.5-0.6-0.9c0-0.1-0.1-0.2-0.1-0.3
		c-0.1,0-0.2-0.1-0.3-0.1h-0.5c-0.1,0-0.2,0-0.3,0.1c-0.1,0.1-0.1,0.2-0.1,0.3c0,0.6,0.2,1.1,0.7,1.5c0.8,0.6,1.7,0.9,2.7,0.8
		c2.1,0,3.2-0.9,3.2-2.5v0.1C272.1,20.3,271.2,19.2,269.9,19.1z"/>
	<path class="st1" d="M326.1,15.1h-0.2c-0.5,0-1,0.2-1.5,0.5c-0.3,0.2-0.6,0.5-0.8,0.9v-0.9c0-0.1,0-0.2-0.1-0.3
		c-0.1-0.1-0.2-0.1-0.3-0.1h-0.6c-0.1,0-0.2,0-0.3,0.1c-0.1,0.1-0.1,0.2-0.1,0.3v8c0,0.1,0,0.2,0.1,0.3s0.2,0.1,0.3,0.1h0.6
		c0.1,0,0.2,0,0.3-0.1c0.1-0.1,0.1-0.2,0.1-0.3v-4.2c0-0.4,0-0.7,0.1-1.1c0.1-0.3,0.2-0.6,0.4-0.9c0.2-0.2,0.4-0.4,0.6-0.6
		c0.3-0.1,0.5-0.2,0.8-0.2h0.4c0.1,0,0.2,0,0.3-0.1c0.1-0.1,0.1-0.2,0.1-0.3v-0.6c0-0.1,0-0.2-0.1-0.3
		C326.3,15.1,326.2,15.1,326.1,15.1z"/>
	<path class="st1" d="M334.1,23.4l-2.9-4c0.1-0.1,0.2-0.3,0.4-0.4l0.1-0.1l2.4-3.1c0.1-0.2,0.1-0.4-0.1-0.5c-0.1,0-0.1-0.1-0.2-0.1
		h-0.9c-0.1,0-0.2,0.1-0.3,0.1l-2.1,2.7c-0.2,0.2-0.4,0.5-0.6,0.7c-0.2,0.1-0.3,0.2-0.5,0.2v-6.6c0-0.2-0.2-0.4-0.4-0.4l0,0h-0.8
		c-0.2,0-0.4,0.2-0.4,0.3l0,0v11.4c0,0.2,0.2,0.4,0.4,0.4l0,0h0.8c0.2,0,0.4-0.2,0.4-0.3l0,0v-3.6c0.2,0,0.4,0,0.5-0.1l2.7,3.8
		c0.1,0.1,0.2,0.1,0.3,0.1h0.9C334,23.9,334.1,23.7,334.1,23.4C334.1,23.4,334.1,23.4,334.1,23.4z"/>
	<path class="st1" d="M280.1,15.9c-0.7-0.7-1.7-1-2.7-0.9c-0.9,0-1.9,0.3-2.6,0.9c-0.4-0.5-1-0.7-1.5-0.6h-0.2c-0.1,0-0.1,0-0.2,0
		h-0.1l0,0c-0.1,0.1-0.1,0.2-0.1,0.3v0.6c0,0.1,0,0.2,0.1,0.3l0,0c0.1,0,0.1,0.1,0.2,0l0,0c0.5,0,0.7,0.4,0.7,1v9.1
		c0,0.1,0,0.2,0.1,0.3c0.1,0.1,0.2,0.1,0.3,0.1h0.6c0.1,0,0.2,0,0.3-0.1c0.1-0.1,0.1-0.2,0.1-0.3v-3.4c0.3,0.3,0.6,0.5,0.9,0.6
		c0.5,0.2,0.9,0.3,1.4,0.3c2.3,0,3.5-1.3,3.5-3.9v-1.7C281.1,17.5,280.8,16.6,280.1,15.9z M279.6,20.2c0,1.8-0.7,2.6-2.2,2.6
		c-0.6,0-1.2-0.2-1.6-0.7c-0.4-0.6-0.6-1.3-0.5-2v-1.4c0-1.8,0.7-2.6,2.2-2.6s2.1,0.9,2.1,2.6V20.2z"/>
	<path class="st1" d="M284.5,24.1h0.2h0.2h0.1l0,0c0.1-0.1,0.1-0.2,0.1-0.3v-0.6c0-0.1,0-0.2-0.1-0.3l0,0c-0.1,0-0.1,0-0.2,0l0,0
		c-0.2,0-0.4-0.1-0.5-0.3c-0.1-0.2-0.2-0.5-0.1-0.8v-6.4c0-0.2-0.2-0.3-0.3-0.3h-0.8c-0.2,0-0.3,0.1-0.3,0.3v6.5
		c0,0.5,0.1,1,0.3,1.4l0.1,0.1l0,0C283.3,23.9,283.9,24.2,284.5,24.1z"/>
	<path class="st1" d="M251.3,11.8l0.4,0.2h0.1c1,0.4,1.9,1.2,2.4,2.2l0.1,0.3c0.5,0.2,1,0.5,1.3,1c0.3-0.9,0.2-1.8-0.2-2.6
		c-0.1-0.1-0.1-0.3-0.2-0.4c-0.6-0.9-1.3-1.6-2.2-2c-1.5-0.8-2.7-0.3-3.8-2.2c-0.6,1-1,2.1-1,3.3c0.3,0,0.6-0.1,0.9-0.1
		C249.8,11.4,250.6,11.5,251.3,11.8z"/>
	<path class="st1" d="M249.6,16.6L249.6,16.6L249.6,16.6z"/>
	<path class="st1" d="M245.3,16.1c0.2-0.2,0.4-0.4,0.5-0.6c0.2-0.2,0.4-0.4,0.6-0.5c0.2-0.2,0.4-0.3,0.7-0.4
		c0.2-0.1,0.5-0.2,0.7-0.3l0.2-0.1l0.2-0.1l0,0c0.1,0,0.2-0.1,0.3-0.1l0,0l0.4-0.1h0.1h0.4h0.1h0.4h0.8h0.1h0.1h0.1l0,0h0.1h0.1l0,0
		h0.1h0.1l0,0l0,0l0.2,0.1l0,0l0.3,0.1c0.6-0.2,1.2-0.2,1.9-0.1c-0.5-0.9-1.3-1.6-2.2-1.9c-0.1-0.1-0.3-0.1-0.4-0.1
		c-1-0.4-2.1-0.5-3.1-0.3c-0.3,0-3.3,0.4-4.8,1.7C244.8,14.3,244.6,14.8,245.3,16.1z"/>
	<path class="st1" d="M251.2,20.9c-0.7-0.4-1.3-1-1.6-1.8l0,0c-0.3-0.8-0.3-1.6-0.1-2.4c-0.9,0.2-1.7,0.7-2.2,1.5l-0.1,0.2
		c0,0.1-0.1,0.1-0.1,0.2c-0.1,0.2-0.2,0.4-0.3,0.7l-0.1,0.3l-0.1,0.4c-0.1,0.5-0.2,1.1-0.2,1.6l0.5,0.1h0.1h0.4l0,0h0.4h0.8h0.3
		c0.6,0,1.1-0.2,1.7-0.4C250.8,21.2,251,21.1,251.2,20.9z"/>
	<path class="st1" d="M246.8,18.1L246.8,18.1l0.1-0.2l0,0l0,0c0.6-0.8,1.5-1.4,2.5-1.6l0.3-0.1l0,0l0.1-0.2c0.1-0.2,0.2-0.4,0.4-0.5
		c0.1-0.2,0.3-0.3,0.4-0.4c0.2-0.2,0.5-0.3,0.8-0.5l0,0l-0.1-0.1h-0.1h-0.1H251h-0.1h-0.1h-0.1h-0.1h-0.1h-1.1h-0.3l0,0l-0.3,0.1
		l0,0l-0.3,0.1c-0.2,0-0.3-0.1-0.5-0.1c-0.9,0.4-1.7,1-2.4,1.8l0,0l-0.1,0.1l0,0l0,0l0,0l0,0c-1.2,1.7-1,2.6-2.7,3.7
		c1,0.5,2,0.9,3.1,1.2c0-0.5,0.1-1.1,0.2-1.6c0.1-0.3,0.1-0.5,0.2-0.8c0.1-0.2,0.2-0.5,0.3-0.7C246.8,18.2,246.8,18.2,246.8,18.1z"
		/>
	<path class="st1" d="M257.6,27.7c-0.8,0.1-1.6,0.1-2.4-0.1c-0.1,0-0.3-0.1-0.4-0.1l0,0c-1.1-0.3-2-0.9-2.7-1.8l-0.2-0.3
		c-0.5-0.1-1-0.4-1.4-0.8c-0.2,0.9,0,1.8,0.6,2.6c0.1,0.1,0.2,0.2,0.3,0.4c0.7,0.8,1.5,1.4,2.5,1.7c1.6,0.5,2.7-0.1,4.1,1.6
		c0.5-1.1,0.7-2.2,0.6-3.4C258.2,27.6,257.9,27.6,257.6,27.7z"/>
	<path class="st1" d="M260.6,22.5c-0.1,0.2-0.3,0.4-0.4,0.6c-0.2,0.2-0.4,0.4-0.5,0.6c-0.2,0.2-0.4,0.4-0.6,0.5s-0.4,0.3-0.6,0.4
		l-0.2,0.1l-0.2,0.1l0,0l-0.3,0.1l0,0l-0.4,0.1l0,0l-0.4,0.1h-0.1l-0.4,0.1h-0.1h-0.1H255h-0.1l0,0h-0.1c-0.1,0-0.1,0-0.2-0.1l0,0
		l-0.3-0.1c-0.6,0.2-1.2,0.4-1.8,0.4c0.6,0.8,1.5,1.4,2.4,1.6c0.1,0,0.3,0.1,0.4,0.1c1,0.2,2.1,0.2,3.1-0.1c0.3,0,3.2-0.9,4.5-2.4
		C261.4,24.2,261.5,23.7,260.6,22.5z"/>
	<path class="st1" d="M254.1,18.5c0.8,0.3,1.4,0.9,1.9,1.6l0,0c0.4,0.7,0.6,1.6,0.4,2.4l0,0c0.9-0.3,1.6-0.9,2-1.8l0.1-0.2
		c0-0.1,0.1-0.1,0.1-0.2c0.1-0.2,0.1-0.5,0.2-0.7l0.1-0.4c0-0.1,0-0.2,0-0.4c0-0.5,0-1.1,0-1.6h-1h-0.4h-0.1H257l0,0h-0.2h-0.1
		l-0.3,0.1c-0.6,0.1-1.1,0.3-1.6,0.6C254.4,18.1,254.2,18.3,254.1,18.5z"/>
	<path class="st1" d="M258.6,21c-0.5,0.9-1.2,1.6-2.2,1.9l-0.3,0.1l0,0c0,0.1,0,0.1-0.1,0.2c-0.1,0.2-0.2,0.4-0.3,0.6
		c-0.1,0.2-0.2,0.3-0.4,0.5c-0.2,0.2-0.4,0.4-0.7,0.5l0,0h0.2h0.1h0.1h0.1h1.2l0.3-0.1l0,0l0.3-0.1l0,0l0.3-0.1l0,0l0.3-0.1
		c0.1-0.1,0.3-0.1,0.4-0.2c0.8-0.4,1.4-1,2-1.7l0,0c0.1-0.2,0.3-0.4,0.4-0.5l0,0c0.9-1.8,0.6-2.7,2.1-4c-1.1-0.4-2.2-0.6-3.3-0.7
		c0.1,0.5,0.1,1.1,0,1.6c0,0.3-0.1,0.5-0.1,0.8c-0.1,0.3-0.1,0.5-0.2,0.7C258.8,20.6,258.8,20.8,258.6,21L258.6,21z"/>
	<polygon class="st1" points="18,13.9 18,9.7 6.9,13.9 	"/>
	<polygon class="st1" points="19,24.7 24.5,7.3 19,9.4 	"/>
	<polygon class="st1" points="18,25.3 18,14.9 13.8,14.9 	"/>
	<polygon class="st1" points="7,14.9 13.7,17 12.8,14.9 	"/>
	<path class="st1" d="M65.3,21.2l-0.2,0.2c-0.1,0.1-0.2,0.2-0.3,0.2c-0.1,0.1-0.3,0.1-0.4,0.2c-0.2,0.1-0.3,0.1-0.5,0.1
		c-0.8,0-1.1-0.5-1.1-1.4v-4.2h2.8v-2h-2.8v-1.4c0-0.3,0-0.5-0.2-0.8c-0.1-0.2-0.2-0.4-0.4-0.5c-0.2-0.1-0.4-0.2-0.6-0.2
		c-0.2,0-0.4-0.1-0.6-0.1h-0.3h-0.3h-0.3v9.3c0,0.3,0,0.6,0,0.9s0.1,0.6,0.2,0.8c0.2,0.5,0.5,0.9,1,1.2c0.6,0.3,1.2,0.5,1.9,0.5
		c0.4,0,0.8,0,1.2-0.1c0.3-0.1,0.6-0.2,0.9-0.3c0.2-0.1,0.4-0.3,0.6-0.5c0.1-0.1,0.2-0.3,0.2-0.5c0-0.2-0.1-0.4-0.2-0.6
		C65.6,21.7,65.5,21.5,65.3,21.2z"/>
	<path class="st1" d="M100.5,21.4L100.5,21.4v-3.7c0-0.5-0.1-1.1-0.2-1.6c-0.1-0.4-0.3-0.8-0.7-1.1c-0.3-0.3-0.7-0.6-1.2-0.7
		c-0.6-0.2-1.2-0.2-1.8-0.2c-0.5,0-1,0-1.4,0.1c-0.4,0.1-0.8,0.2-1.2,0.3c-0.3,0.1-0.6,0.3-0.8,0.5c-0.2,0.1-0.3,0.3-0.3,0.5
		c0,0.2,0.1,0.4,0.2,0.6c0.1,0.3,0.3,0.5,0.4,0.7c0.4-0.2,0.8-0.4,1.3-0.6c0.5-0.2,1-0.3,1.5-0.3c0.5,0,0.9,0.1,1.3,0.3
		c0.3,0.3,0.4,0.7,0.4,1.1v0.4h-0.4h-0.5c-0.5,0-1,0.1-1.6,0.2c-0.5,0.1-1.1,0.3-1.6,0.5c-0.5,0.2-0.9,0.6-1.2,1
		c-0.3,0.5-0.5,1-0.5,1.6c0,0.5,0.1,0.9,0.3,1.4c0.2,0.3,0.4,0.7,0.7,0.9c0.3,0.2,0.6,0.4,1,0.5c0.3,0.1,0.7,0.1,1.1,0.1
		c0.6,0,1.2-0.1,1.7-0.4c0.4-0.2,0.8-0.4,1.2-0.7c0,0.3,0.2,0.6,0.5,0.8c0.3,0.2,0.7,0.3,1.1,0.3c0.2,0,0.4,0,0.6-0.1
		c0.2,0,0.4-0.1,0.7-0.2C100.6,23,100.4,22.2,100.5,21.4z M98,21.1c0,0.1-0.1,0.2-0.1,0.3c-0.1,0.1-0.3,0.3-0.4,0.4
		c-0.4,0.2-0.8,0.3-1.3,0.4c-0.4,0-0.7-0.1-1-0.4c-0.2-0.3-0.3-0.6-0.3-0.9s0.1-0.6,0.2-0.8c0.2-0.2,0.4-0.4,0.6-0.5
		c0.3-0.1,0.6-0.2,0.8-0.3c0.3-0.1,0.7-0.1,1-0.1h0.3h0.3L98,21.1z"/>
	<path class="st1" d="M57,15.2c-0.3-0.4-0.7-0.6-1.2-0.8c-0.4-0.2-0.9-0.3-1.4-0.2c-0.6,0-1.2,0.1-1.7,0.4c-0.4,0.2-0.7,0.4-1,0.8
		c-0.1-0.3-0.3-0.6-0.6-0.7c-0.3-0.2-0.7-0.2-1.1-0.2h-0.4h-0.3h-0.2V28h2.7v-4.8c0.1,0.1,0.1,0.1,0.2,0.2c0.1,0.1,0.3,0.2,0.5,0.3
		c0.2,0.1,0.5,0.2,0.7,0.3c0.3,0.1,0.7,0.1,1,0.1c0.5,0,0.9-0.1,1.4-0.2c0.5-0.2,0.9-0.4,1.2-0.8c0.4-0.5,0.7-1,0.9-1.6
		c0.3-0.8,0.4-1.7,0.3-2.5c0-0.7-0.1-1.5-0.3-2.2C57.7,16.1,57.4,15.6,57,15.2z M54.9,21.1c-0.3,0.5-0.9,0.8-1.5,0.8
		c-0.3,0-0.6-0.1-0.9-0.2c-0.2-0.1-0.4-0.2-0.6-0.4v-4.2c0-0.3,0.1-0.5,0.3-0.7c0.3-0.2,0.7-0.4,1.2-0.3c0.3,0,0.6,0.1,0.9,0.2
		c0.3,0.1,0.5,0.3,0.6,0.6c0.2,0.3,0.3,0.6,0.3,0.9c0.1,0.4,0.1,0.7,0.1,1.1C55.4,19.7,55.2,20.4,54.9,21.1z"/>
	<path class="st1" d="M74.6,15.4c-0.3-0.4-0.8-0.7-1.2-0.9c-0.6-0.2-1.2-0.4-1.9-0.4c-0.6,0-1.1,0.1-1.6,0.3c-0.5,0.2-1,0.5-1.4,0.9
		c-0.4,0.4-0.8,0.9-1,1.5c-0.3,0.7-0.4,1.4-0.4,2.1c0,0.9,0.1,1.7,0.4,2.5c0.3,0.6,0.6,1.1,1.1,1.6c0.4,0.4,1,0.7,1.5,0.8
		c0.6,0.2,1.2,0.2,1.8,0.2c0.6,0,1.2-0.1,1.8-0.2c0.4-0.1,0.8-0.3,1.2-0.5c0.3-0.2,0.5-0.5,0.5-0.8s-0.1-0.5-0.3-0.8
		c-0.1-0.3-0.3-0.5-0.5-0.8l-0.4,0.4c-0.2,0.1-0.3,0.2-0.5,0.3c-0.2,0.1-0.4,0.2-0.7,0.3C72.7,22,72.4,22,72.1,22l0,0
		c-0.7,0.1-1.4-0.2-1.9-0.7c-0.4-0.5-0.6-1.1-0.7-1.8h5.8c0-0.1,0-0.1,0-0.3c0-0.2,0-0.2,0-0.4s0-0.2,0-0.3v-0.3
		c0-0.5-0.1-1.1-0.2-1.6C75.1,16.3,74.9,15.8,74.6,15.4z M69.6,18c0-0.6,0.2-1.1,0.5-1.6c0.3-0.4,0.8-0.6,1.3-0.6
		c0.5-0.1,1,0.2,1.3,0.6c0.3,0.5,0.4,1,0.4,1.5L69.6,18z"/>
	<path class="st1" d="M30.7,14c0.3-0.4,0.7-0.8,1.1-1.1c0.5-0.3,1.1-0.4,1.7-0.4c0.3,0,0.7,0,1,0.1c0.3,0.1,0.6,0.2,0.8,0.3
		s0.5,0.3,0.7,0.4s0.4,0.3,0.5,0.5c0.2-0.2,0.4-0.5,0.6-0.7c0.2-0.2,0.3-0.5,0.3-0.8c0-0.2,0-0.3-0.1-0.5c-0.1-0.1-0.2-0.3-0.3-0.4
		c-0.1-0.1-0.3-0.2-0.5-0.4c-0.2-0.2-0.5-0.3-0.8-0.4c-0.3-0.1-0.7-0.2-1.1-0.3c-1.4-0.3-2.8-0.1-4.1,0.4c-0.7,0.3-1.4,0.8-1.9,1.4
		s-0.9,1.4-1.1,2.2c-0.3,0.9-0.4,1.8-0.4,2.7s0.1,1.8,0.4,2.7c0.2,0.8,0.6,1.5,1.1,2.1s1.2,1.1,1.9,1.4c0.9,0.4,1.8,0.5,2.7,0.5
		c0.9,0,1.7-0.1,2.5-0.4c0.2-0.1,0.5-0.2,0.7-0.4c0.1-0.1,0.3-0.2,0.4-0.3l0,0c0.1-0.1,0.2-0.2,0.3-0.4c0.1-0.1,0.1-0.3,0.1-0.4
		s0-0.3-0.1-0.4c0,0.2,0,0-0.1-0.1c-0.1-0.1-0.2-0.3-0.3-0.4l-0.3-0.3c-0.1,0.1-0.3,0.2-0.4,0.4c-0.2,0.2-0.4,0.3-0.6,0.4
		c-0.3,0.1-0.5,0.2-0.8,0.3c-0.3,0.1-0.7,0.1-1,0.1c-0.6,0-1.2-0.1-1.7-0.4c-0.5-0.2-0.8-0.6-1.1-1c-0.3-0.5-0.5-1-0.6-1.5
		c-0.1-0.6-0.2-1.2-0.2-1.8c0-0.6,0.1-1.2,0.2-1.8C30.2,14.9,30.4,14.4,30.7,14z"/>
	<path class="st1" d="M83.3,14.3c-0.2-0.1-0.3-0.1-0.5-0.1c-0.2,0-0.3,0-0.5,0s-0.5,0-0.7,0.1c-0.2,0.1-0.4,0.2-0.6,0.3
		c-0.2,0.1-0.3,0.2-0.5,0.4c-0.1,0.1-0.2,0.3-0.3,0.4c-0.1-0.3-0.3-0.6-0.6-0.8c-0.3-0.2-0.7-0.2-1.1-0.2h-0.4h-0.3h-0.2V24h2.7
		v-6.4c0-0.3,0.2-0.6,0.4-0.9c0.3-0.2,0.6-0.4,1-0.4c0.3,0,0.5,0,0.8,0.1c0.2,0.1,0.5,0.3,0.7,0.4c0.2-0.3,0.3-0.6,0.4-1
		c0.1-0.3,0.2-0.7,0.2-1c0-0.2,0-0.3-0.1-0.5C83.5,14.5,83.4,14.4,83.3,14.3z"/>
	<path class="st1" d="M46.9,21.4v-3.7c0-0.5-0.1-1.1-0.2-1.6c-0.1-0.4-0.3-0.8-0.6-1.1c-0.3-0.3-0.8-0.5-1.2-0.7
		c-0.6-0.2-1.2-0.2-1.8-0.2c-0.5,0-1,0-1.5,0.1c-0.4,0.1-0.8,0.2-1.2,0.3c-0.3,0.1-0.6,0.3-0.8,0.5c-0.2,0.1-0.3,0.3-0.3,0.5
		c0,0.2,0.1,0.4,0.2,0.6c0.1,0.3,0.3,0.5,0.4,0.7c0.4-0.2,0.8-0.4,1.3-0.6c0.5-0.2,1-0.3,1.5-0.3s0.9,0.1,1.3,0.3
		c0.3,0.3,0.4,0.7,0.4,1.1v0.4H44h-0.5c-0.5,0-1,0.1-1.5,0.2c-0.5,0.1-1.1,0.3-1.6,0.5c-0.5,0.2-0.9,0.6-1.2,1
		c-0.3,0.5-0.5,1-0.5,1.6c0,0.5,0.1,0.9,0.3,1.4c0.2,0.3,0.4,0.7,0.7,0.9c0.3,0.2,0.6,0.4,1,0.5c0.3,0.1,0.7,0.1,1.1,0.1
		c0.6,0,1.2-0.1,1.7-0.4c0.4-0.2,0.8-0.4,1.1-0.8c0,0.3,0.2,0.6,0.5,0.8c0.3,0.2,0.7,0.3,1.1,0.3c0.2,0,0.4,0,0.6-0.1
		c0.2,0,0.4-0.1,0.7-0.2C47,22.9,46.9,22.2,46.9,21.4L46.9,21.4z M44.4,21.1c0,0.1-0.1,0.2-0.1,0.3c-0.1,0.1-0.3,0.3-0.4,0.4
		c-0.4,0.2-0.8,0.3-1.3,0.4c-0.4,0-0.8-0.1-1.1-0.4c-0.2-0.3-0.3-0.6-0.3-0.9s0.1-0.6,0.2-0.8c0.2-0.2,0.4-0.4,0.7-0.5
		c0.3-0.1,0.6-0.2,0.8-0.3c0.3-0.1,0.7-0.1,1-0.1h0.3h0.3L44.4,21.1z"/>
	<path class="st1" d="M90.9,14.3c-0.2-0.1-0.3-0.1-0.5-0.1s-0.3,0-0.5,0s-0.5,0-0.7,0.1c-0.2,0.1-0.4,0.2-0.6,0.3
		c-0.3,0.2-0.6,0.5-0.8,0.8l0,0c-0.1-0.3-0.3-0.6-0.6-0.8c-0.3-0.2-0.7-0.3-1-0.3h-0.4h-0.3h-0.2V24H88v-6.4c0-0.3,0.2-0.6,0.4-0.9
		c0.3-0.2,0.6-0.4,1-0.4c0.3,0,0.6,0.1,0.8,0.2c0.2,0.1,0.5,0.3,0.7,0.4c0.2-0.3,0.3-0.6,0.4-1c0.1-0.3,0.2-0.7,0.2-1
		c0-0.2,0-0.3-0.1-0.5C91.2,14.5,91,14.4,90.9,14.3z"/>
</g>
</svg>
