<?xml version="1.0" encoding="utf-8"?>
<!-- Generator: Adobe Illustrator 25.3.1, SVG Export Plug-In . SVG Version: 6.00 Build 0)  -->
<svg version="1.1" id="Layer_1" xmlns="http://www.w3.org/2000/svg" xmlns:xlink="http://www.w3.org/1999/xlink" x="0px" y="0px"
	 viewBox="0 0 266.3 50.1" style="enable-background:new 0 0 266.3 50.1;" xml:space="preserve">
<style type="text/css">
	.st0{fill:#FFFFFF;}
</style>
<g id="Layer_2_1_">
	<g id="Layer_1-2">
		<path class="st0" d="M19.6,11.2v3.9c-2.1-1.1-4.3-1.6-6.6-1.6c-3.7,0-6.6,2.3-6.6,5.3s2.3,5.4,6.2,5.4c1,0,2-0.2,2.9-0.6v-2.1
			h-2.6c0-0.4,0-3.3,0-3.3h7v7.3c-2.1,1.7-4.8,2.5-7.5,2.4c-5.3,0-10.6-2.7-10.6-9.4S8.7,9.7,12,9.7C16.1,9.7,18.8,10.3,19.6,11.2z"
			/>
		<polygon class="st0" points="47.8,9.9 43,9.9 51.6,27.9 53.5,27.9 61.7,9.9 57,9.9 52.5,20.1 		"/>
		<rect x="63.8" y="10" class="st0" width="12.8" height="3.1"/>
		<rect x="63.8" y="17.2" class="st0" width="12.8" height="3.1"/>
		<rect x="63.8" y="24.5" class="st0" width="12.8" height="3.1"/>
		<rect x="80.3" y="9.9" class="st0" width="4.4" height="17.7"/>
		<path class="st0" d="M86.2,9.9v3.3c0.3,0.1,3.3-0.4,3.3,2s-3.3,2.1-3.3,2.1v3.2c0.6,0.2,1.2,0.5,1.6,1c1.2,2,2.3,4.1,3.2,6.3h4.9
			c-0.9-2.4-2-4.7-3.3-6.9c-1.1-1.4-1.6-1.4-1.6-1.4c1.9-0.7,3.2-2.6,3.1-4.7c-0.1-1.9-1.3-3.5-3-4.3C89.5,10,87.8,9.7,86.2,9.9z"/>
		<polyline class="st0" points="97.9,9.9 102.3,9.9 102.3,24.5 111.5,24.5 111.5,27.7 97.9,27.7 97.9,9.9 		"/>
		<polygon class="st0" points="122.1,9.6 124.1,9.6 132.3,27.6 127.6,27.6 123.1,17.6 118.4,27.5 113.6,27.5 		"/>
		<polygon class="st0" points="134.1,9.9 134.1,27.9 138.6,27.9 138.6,16.3 148.5,27.9 152.3,27.9 152.3,9.9 147.7,9.9 147.7,20.8 
			138.2,9.9 		"/>
		<path class="st0" d="M35.6,9.9v3.9c2,0.8,3.4,2.7,3.3,4.9c0.1,2.2-1.2,4.3-3.3,5.1v3.9c4.9-0.6,8.4-5.1,7.8-10
			C42.9,13.7,39.7,10.4,35.6,9.9L35.6,9.9z"/>
		<path class="st0" d="M31.4,24c-2.3-0.7-3.9-2.8-3.7-5.3c-0.1-2.3,1.4-4.4,3.7-5V9.8c-4.6,0.5-8.2,4.3-8.3,9c0,4.7,3.6,8.6,8.3,9
			V24z"/>
		<rect x="162.5" y="1" class="st0" width="1" height="36"/>
		<path class="st0" d="M239.5,24.8c-3.3,1.9-7.5,0.9-9.4-2.4c-1.9-3.3-0.9-7.5,2.4-9.4c1.1-0.6,2.3-1,3.5-1c1.2,0,2.3,0.3,3.3,0.9
			l2.1-1.6c-1.6-1.1-3.5-1.8-5.4-1.7c-5.2,0-9.3,4.2-9.4,9.3s4.2,9.3,9.3,9.4c2,0,4-0.7,5.7-1.9L239.5,24.8z"/>
		<polygon class="st0" points="236.4,19 244.6,13 244.6,24.8 		"/>
		<path class="st0" d="M185.6,27.6L185.6,27.6c-0.5-1.2-0.7-2.4-0.6-3.7c0.1-1-0.1-2-0.5-3c-0.6-1.1-1.7-1.8-2.9-1.9
			c1.2-0.3,2.2-1,2.9-2c0.5-0.8,0.8-1.6,0.7-2.5c0.1-1.3-0.5-2.6-1.4-3.4c-1.3-0.8-2.7-1.2-4.2-1.1h-7.9c-0.2,0-0.3,0.2-0.2,0.4
			c0,0.1,0.1,0.2,0.2,0.2h8c3.3,0,4.9,1.3,5,3.9c0.1,1.3-0.5,2.5-1.5,3.2c-1.1,0.7-2.4,1.1-3.7,1.1l0,0c-0.2,0-0.3,0.1-0.3,0.3
			c0,0.2,0.1,0.3,0.3,0.3l0,0c2,0,3.5,0.4,4.2,1.2c0.7,0.9,1,2.1,0.9,3.2c0,1.3,0.1,2.5,0.4,3.8l0,0c0.1,0.2,0.3,0.3,0.5,0.3
			c0,0,0,0,0,0C185.4,27.9,185.5,27.8,185.6,27.6L185.6,27.6z"/>
		<path class="st0" d="M203.8,27.3c0-0.2-0.1-0.3-0.3-0.3h-12.3v-8.2h7.9c0.2,0,0.3-0.2,0.3-0.4c0-0.1-0.1-0.2-0.3-0.3h-7.9v-7.5
			h12.3c0.2,0,0.3-0.1,0.3-0.3c0,0,0,0,0,0c0-0.2-0.1-0.3-0.3-0.3h-12.9v17.6h12.9C203.7,27.6,203.8,27.5,203.8,27.3
			C203.8,27.3,203.8,27.3,203.8,27.3z"/>
		<path class="st0" d="M223.8,27.6L223.8,27.6l-2-4.7v-0.1l0,0L216.3,10l0,0c-0.1-0.2-0.3-0.3-0.5-0.2c-0.1,0-0.2,0.1-0.2,0.2
			l-7.7,17.6l0,0c0,0.1,0.1,0.2,0.3,0.2c0.2,0.1,0.4-0.1,0.4-0.2l0,0l1.8-4.2h11.1l1.8,4.2l0,0c0,0.1,0.1,0.2,0.2,0.2
			C223.5,27.9,223.7,27.8,223.8,27.6z M210.6,22.8l5.3-12.2l5.3,12.2H210.6z"/>
		<path class="st0" d="M264.6,27.6L264.6,27.6V10l0,0c0-0.2-0.1-0.3-0.3-0.3c-0.2,0-0.3,0.1-0.3,0.3l0,0v8.1h-13.3V10l0,0l0,0l0,0
			c0-0.2-0.2-0.3-0.4-0.2c-0.1,0-0.2,0.1-0.2,0.2l0,0v17.6l0,0c0,0.2,0.2,0.3,0.4,0.2c0.1,0,0.2-0.1,0.2-0.2l0,0v-8.9H264v8.8l0,0
			c0,0.2,0.1,0.3,0.3,0.3c0,0,0,0,0,0C264.5,27.9,264.6,27.7,264.6,27.6L264.6,27.6L264.6,27.6z"/>
		<path class="st0" d="M2.7,44.5c0-1.4,1.3-2.1,4.1-2.4c0-1-0.2-2-1.5-2c-0.7,0-1.4,0.3-2,0.7L3,40.3c0.7-0.5,1.5-0.8,2.4-0.8
			c1.5,0,2,1.1,2,2.4v4H6.8v-0.8l0,0c-0.6,0.6-1.4,0.9-2.2,1c-0.9,0.2-1.7-0.4-1.9-1.3C2.7,44.7,2.7,44.6,2.7,44.5z M6.7,44.7v-2.2
			c-2.6,0.3-3.5,0.9-3.5,1.9c-0.1,0.7,0.4,1.2,1.1,1.3c0.1,0,0.2,0,0.2,0C5.4,45.6,6.2,45.2,6.7,44.7L6.7,44.7z"/>
		<path class="st0" d="M9.6,39.7h0.5v1l0,0c0.5-0.7,1.3-1.1,2.2-1.1c1.3,0,1.9,0.8,1.9,2.4v4h-0.5V42c0-1.3-0.4-2-1.4-2
			c-0.7,0-1.3,0.4-2.1,1.2V46H9.6V39.7z"/>
		<path class="st0" d="M19.2,37.3H24v0.6h-4.1v3.3h3.5v0.5h-3.5v3.8h4.3V46h-4.9V37.3z"/>
		<path class="st0" d="M25.5,44.5c0-1.4,1.3-2.1,4.1-2.4c0-1-0.2-2-1.5-2c-0.7,0-1.4,0.3-2,0.7l-0.3-0.4c0.7-0.5,1.5-0.8,2.3-0.9
			c1.5,0,2,1.1,2,2.4v4h-0.5v-0.8l0,0c-0.6,0.6-1.4,0.9-2.2,1c-0.9,0.1-1.7-0.5-1.9-1.4C25.5,44.7,25.5,44.6,25.5,44.5z M29.6,44.7
			v-2.2c-2.6,0.3-3.5,0.9-3.5,1.9c-0.1,0.7,0.4,1.2,1.1,1.3c0.1,0,0.2,0,0.2,0C28.3,45.6,29,45.2,29.6,44.7L29.6,44.7z"/>
		<path class="st0" d="M31.6,45.3l0.3-0.4c0.5,0.5,1.3,0.8,2,0.8c0.7,0.1,1.4-0.4,1.5-1.1c0-0.1,0-0.1,0-0.2c0-0.8-0.8-1.1-1.5-1.3
			c-1-0.3-2-0.7-2-1.8s0.7-1.7,2-1.7c0.7,0,1.3,0.2,1.8,0.7l-0.3,0.4c-0.4-0.4-1-0.6-1.5-0.6c-1,0-1.4,0.6-1.4,1.1s0.7,1,1.5,1.3
			c1,0.4,2.1,0.7,2.1,1.9c0,0.9-0.8,1.8-2.1,1.8C33.1,46.2,32.2,45.8,31.6,45.3z"/>
		<path class="st0" d="M36.8,48.7l0.1-0.5c0.2,0.1,0.3,0.1,0.5,0.1c0.8,0,1.3-0.7,1.6-1.7l0.2-0.6l-2.6-6.4h0.6l1.5,3.9
			c0.2,0.5,0.4,1.2,0.7,1.7l0,0c0.2-0.5,0.4-1.2,0.6-1.7l1.3-3.9h0.6l-2.5,7.1c-0.4,1.1-1,2.1-2.1,2.1C37.2,48.8,37,48.8,36.8,48.7z
			"/>
		<path class="st0" d="M42.3,37.3h0.6l1.6,5.1c0.3,1.1,0.6,1.9,0.9,2.9l0,0c0.4-1,0.6-1.8,0.9-2.9l1.6-5.1h0.6L45.7,46h-0.6
			L42.3,37.3z"/>
		<path class="st0" d="M49.7,37.7c0-0.3,0.2-0.5,0.5-0.5c0.3,0,0.5,0.2,0.5,0.5s-0.2,0.5-0.5,0.5c0,0,0,0,0,0
			C49.9,38.2,49.7,38,49.7,37.7C49.7,37.7,49.7,37.7,49.7,37.7z M49.9,39.7h0.6V46h-0.6L49.9,39.7z"/>
		<path class="st0" d="M52.1,45.3l0.3-0.4c0.5,0.5,1.3,0.8,2,0.8c0.7,0.1,1.4-0.4,1.5-1.1c0-0.1,0-0.1,0-0.2c0-0.8-0.8-1.1-1.5-1.3
			c-1-0.3-2-0.7-2-1.8c0-1.1,0.7-1.7,2-1.7c0.7,0,1.3,0.2,1.8,0.7l-0.3,0.4C55.5,40.2,55,40,54.4,40c-1,0-1.4,0.6-1.4,1.1
			s0.7,1,1.5,1.3c1,0.4,2.1,0.7,2.1,1.9c0,0.9-0.8,1.8-2.1,1.8C53.6,46.2,52.7,45.8,52.1,45.3z"/>
		<path class="st0" d="M58.1,44.2v-4.1h-1v-0.4h1l0.1-1.8h0.5v1.8h1.8v0.5h-1.8v4.1c0,0.8,0.2,1.3,1.1,1.3c0.3,0,0.5-0.1,0.8-0.2
			l0.2,0.5c-0.3,0.1-0.7,0.2-1,0.2C58.4,46.1,58.1,45.4,58.1,44.2z"/>
		<path class="st0" d="M61.3,44.5c0-1.4,1.3-2.1,4.1-2.4c0-1-0.2-2-1.5-2c-0.7,0-1.4,0.3-2,0.7l-0.3-0.4c0.7-0.5,1.5-0.8,2.4-0.8
			c1.5,0,2,1.1,2,2.4v4h-0.5v-0.8l0,0c-0.6,0.6-1.4,0.9-2.2,1c-0.9,0.2-1.7-0.4-1.9-1.3C61.3,44.7,61.3,44.6,61.3,44.5z M65.4,44.7
			v-2.2c-2.6,0.3-3.5,0.9-3.5,1.9c-0.1,0.7,0.4,1.2,1.1,1.3c0.1,0,0.2,0,0.2,0C64.1,45.6,64.8,45.2,65.4,44.7L65.4,44.7z"/>
		<path class="st0" d="M70.4,41.6c0-2.7,1.5-4.5,3.7-4.5c0.9,0,1.7,0.4,2.3,1l-0.4,0.4c-0.5-0.6-1.2-0.9-1.9-0.9
			c-1.9,0-3.1,1.5-3.1,3.9s1.2,3.9,3,3.9c0.9,0,1.7-0.4,2.2-1.1l0.4,0.4c-0.6,0.8-1.6,1.2-2.6,1.2C71.8,46.1,70.4,44.4,70.4,41.6z"
			/>
		<path class="st0" d="M77.7,42.9c-0.2-1.6,0.8-3,2.4-3.3c1.6-0.2,3,0.8,3.3,2.4c0,0.3,0,0.6,0,0.9c0.2,1.6-0.8,3-2.4,3.3
			c-1.6,0.2-3-0.8-3.3-2.4C77.7,43.4,77.7,43.1,77.7,42.9z M82.8,42.9c0-1.7-1-2.8-2.2-2.8s-2.2,1.1-2.2,2.8s0.9,2.8,2.2,2.8
			C81.8,45.6,82.8,44.5,82.8,42.9z"/>
		<path class="st0" d="M85.3,39.7h0.5v1l0,0c0.5-0.6,1.2-1,2-1.1c0.8-0.1,1.6,0.5,1.7,1.3c0.5-0.7,1.3-1.2,2.1-1.3
			c1.3,0,1.9,0.8,1.9,2.4v4h-0.6V42c0-1.3-0.4-2-1.4-2c-0.8,0.1-1.5,0.5-1.9,1.2V46h-0.6v-3.9c0-1.3-0.4-2-1.4-2
			c-0.8,0.1-1.5,0.5-1.9,1.2V46h-0.6L85.3,39.7z"/>
		<path class="st0" d="M95.9,39.7h0.5v0.8l0,0c0.6-0.5,1.3-0.9,2.1-0.9c1.7,0,2.5,1.3,2.5,3.2c0.2,1.6-0.9,3.2-2.6,3.4
			c-0.1,0-0.1,0-0.2,0c-0.7-0.1-1.3-0.3-1.9-0.8v3.5h-0.6L95.9,39.7z M100.6,42.7c0-1.6-0.6-2.7-2-2.7c-0.8,0.1-1.5,0.5-2.1,1v3.7
			c0.5,0.5,1.2,0.7,1.9,0.8C99.7,45.6,100.6,44.5,100.6,42.7z"/>
		<path class="st0" d="M102.4,44.5c0-1.4,1.3-2.1,4.1-2.4c0-1-0.2-2-1.5-2c-0.7,0-1.4,0.3-2,0.7l-0.3-0.4c0.7-0.5,1.5-0.8,2.4-0.8
			c1.5,0,2,1.1,2,2.4v4h-0.5v-0.8l0,0c-0.6,0.6-1.4,0.9-2.2,1c-0.9,0.2-1.7-0.4-1.9-1.3C102.4,44.7,102.4,44.6,102.4,44.5z
			 M106.5,44.7v-2.2c-2.6,0.3-3.5,0.9-3.5,1.9c-0.1,0.7,0.4,1.2,1.1,1.3c0.1,0,0.2,0,0.2,0C105.2,45.6,106,45.2,106.5,44.7
			L106.5,44.7z"/>
		<path class="st0" d="M109.3,39.7h0.5v1l0,0c0.5-0.7,1.3-1.1,2.2-1.1c1.3,0,1.9,0.8,1.9,2.4v4h-0.5V42c0-1.3-0.4-2-1.4-2
			c-0.7,0-1.3,0.4-2.1,1.2V46h-0.6V39.7z"/>
		<path class="st0" d="M115.4,48.7l0.1-0.5c0.2,0.1,0.3,0.1,0.5,0.1c0.8,0,1.3-0.7,1.6-1.7l0.2-0.6l-2.6-6.4h0.6l1.5,3.9
			c0.2,0.5,0.4,1.2,0.7,1.7l0,0c0.2-0.5,0.4-1.2,0.6-1.7l1.3-3.9h0.6l-2.5,7.1c-0.4,1.1-1,2.1-2.1,2.1
			C115.8,48.8,115.6,48.8,115.4,48.7z"/>
	</g>
</g>
</svg>
