<svg id="Capa_1" data-name="Capa 1" xmlns="http://www.w3.org/2000/svg" viewBox="0 0 512 117"><defs><style>.cls-1{fill:#fcb030;}</style></defs><path class="cls-1" d="M256,78.09l-15.32,9.62A4.43,4.43,0,0,1,234,82.88l4.42-17.55-13.89-11.6a4.43,4.43,0,0,1,2.54-7.81l18.05-1.22,6.74-16.79a4.43,4.43,0,0,1,8.22,0l6.74,16.79,18,1.22a4.43,4.43,0,0,1,2.54,7.81l-13.89,11.6L278,82.88a4.43,4.43,0,0,1-6.65,4.83Z"/><path class="cls-1" d="M161,78.09l-15.32,9.62a4.42,4.42,0,0,1-6.64-4.83l4.41-17.55-13.89-11.6a4.43,4.43,0,0,1,2.54-7.81l18.05-1.22,6.75-16.79a4.42,4.42,0,0,1,8.21,0l6.74,16.79,18.05,1.22a4.43,4.43,0,0,1,2.54,7.81l-13.89,11.6L183,82.88a4.43,4.43,0,0,1-6.64,4.83Z"/><path class="cls-1" d="M351,78.09l-15.33,9.62A4.43,4.43,0,0,1,329,82.88l4.42-17.55-13.89-11.6a4.43,4.43,0,0,1,2.54-7.81l18.05-1.22,6.74-16.79a4.42,4.42,0,0,1,8.21,0l6.75,16.79,18.05,1.22a4.43,4.43,0,0,1,2.54,7.81l-13.89,11.6,4.41,17.55a4.42,4.42,0,0,1-6.64,4.83Z"/><path class="cls-1" d="M445.94,78.09l-15.33,9.62A4.42,4.42,0,0,1,424,82.88l4.41-17.55L414.5,53.73A4.43,4.43,0,0,1,417,45.92l18.06-1.22,6.74-16.79a4.42,4.42,0,0,1,8.21,0l6.74,16.79,18.06,1.22a4.42,4.42,0,0,1,2.53,7.81l-13.88,11.6,4.41,17.55a4.42,4.42,0,0,1-6.64,4.83Z"/><path class="cls-1" d="M66.07,78.09,50.74,87.71a4.42,4.42,0,0,1-6.64-4.83l4.41-17.55L34.63,53.73a4.43,4.43,0,0,1,2.53-7.81L55.22,44.7,62,27.91a4.42,4.42,0,0,1,8.21,0L76.91,44.7,95,45.92a4.42,4.42,0,0,1,2.53,7.81L83.62,65.33,88,82.88a4.42,4.42,0,0,1-6.64,4.83Z"/></svg>